# File created by Blade
# Date/Time:  Tue Sep 30 19:33:40 2014
#---------------------------------------------------------
:version 1.10
:name HOM
:units
  mass 1.0
  length 1.000000
  angle deg
:documentation
     Acclaim Skeleton File
:root
   axis xyz
   order TX TY TZ RX RY RZ
   position 0.000000 0.000000 0.000000
   orientation 0 0 0
:bonedata
   begin
      id 1
      name Spine_dum
      direction 0.000000 1.000000 0.000000
      length 3.241213
      axis 0.0 0.0 0.0 xyz
   end
   begin
      id 2
      name LeftUpLeg_dum
      direction 1.000000 0.000000 0.000000
      length 3.434019
      axis 0.0 0.0 0.0 xyz
   end
   begin
      id 3
      name RightUpLeg_dum
      direction -1.000000 0.000000 0.000000
      length 3.434019
      axis 0.0 0.0 0.0 xyz
   end
   begin
      id 4
      name Spine
      direction 0.000000 1.000000 0.000000
      length 0.000000
      axis 0.0 0.0 0.0 xyz
      dof rx ry rz
   end
   begin
      id 5
      name Spine_dum1
      direction 0.000000 1.000000 0.000000
      length 18.382958
      axis 0.0 0.0 0.0 xyz
   end
   begin
      id 6
      name Spine_dum2
      direction 0.000000 1.000000 0.000000
      length 12.828261
      axis 0.0 0.0 0.0 xyz
   end
   begin
      id 7
      name Spine_dum3
      direction 0.000000 1.000000 0.000000
      length 12.828261
      axis 0.0 0.0 0.0 xyz
   end
   begin
      id 8
      name Head
      direction 0.000000 1.000000 0.000000
      length 4.527550
      axis 0.0 0.0 0.0 xyz
      dof rx ry rz
   end
   begin
      id 9
      name LeftShoulder
      direction 1.000000 0.000000 0.000000
      length 7.748055
      axis 0.0 0.0 -90.0 xyz
      dof rx ry rz
   end
   begin
      id 10
      name LeftArm
      direction 1.000000 0.000000 0.000000
      length 10.635614
      axis 0.0 0.0 -90.0 xyz
      dof rx ry rz
   end
   begin
      id 11
      name LeftForeArm
      direction 1.000000 0.000000 0.000000
      length 8.346755
      axis 0.0 0.0 -90.0 xyz
      dof ry rz rx
   end
   begin
      id 12
      name LeftHand
      direction 0.000000 0.000000 0.000000
      length 0.000000
      axis 0.0 0.0 -90.0 xyz
      dof rx ry rz
   end
   begin
      id 13
      name LeftHand_dum1
      direction 0.000000 0.000000 0.000000
      length 0.000000
      axis 0.0 0.0 -90.0 xyz
   end
   begin
      id 14
      name LeftHand_dum2
      direction 1.000000 0.000000 0.000000
      length 3.937000
      axis 0.0 0.0 -90.0 xyz
   end
   begin
      id 15
      name LeftHandThumb1
      direction 0.000000 0.000000 1.000000
      length 3.937000
      axis 0.0 0.0 -90.0 xyz
      dof rx rz ry
   end
   begin
      id 16
      name RightShoulder
      direction -1.000000 0.000000 0.000000
      length 7.748055
      axis 0.0 0.0 90.0 xyz
      dof rx ry rz
   end
   begin
      id 17
      name RightArm
      direction -1.000000 0.000000 0.000000
      length 10.635614
      axis 0.0 0.0 90.0 xyz
      dof rx ry rz
   end
   begin
      id 18
      name RightForeArm
      direction -1.000000 0.000000 0.000000
      length 8.346755
      axis 0.0 0.0 90.0 xyz
      dof ry rz rx
   end
   begin
      id 19
      name RightHand
      direction 0.000000 0.000000 0.000000
      length 0.000000
      axis 0.0 0.0 90.0 xyz
      dof rx ry rz
   end
   begin
      id 20
      name RightHand_dum1
      direction 0.000000 0.000000 0.000000
      length 0.000000
      axis 0.0 0.0 90.0 xyz
   end
   begin
      id 21
      name RightHand_dum2
      direction -1.000000 0.000000 0.000000
      length 3.937000
      axis 0.0 0.0 90.0 xyz
   end
   begin
      id 22
      name RightHandThumb1
      direction 0.000000 0.000000 1.000000
      length 3.937000
      axis 0.0 0.0 90.0 xyz
      dof rx rz ry
   end
   begin
      id 23
      name LeftUpLeg
      direction 0.000000 -1.000000 0.000000
      length 15.713025
      axis 0.0 0.0 0.0 xyz
      dof rx ry rz
   end
   begin
      id 24
      name LeftLeg
      direction 0.000000 -1.000000 0.000000
      length 14.435119
      axis 0.0 0.0 0.0 xyz
      dof rx ry rz
   end
   begin
      id 25
      name LeftFoot
      direction 0.000000 -0.258819 0.965926
      length 4.938895
      axis 15.0 0.0 0.0 xyz
      dof rx ry rz
   end
   begin
      id 26
      name LeftToeBase
      direction 0.000000 0.000000 1.000000
      length 2.952750
      axis 0.0 0.0 0.0 xyz
      dof rx ry rz
   end
   begin
      id 27
      name RightUpLeg
      direction 0.000000 -1.000000 0.000000
      length 15.713025
      axis 0.0 0.0 0.0 xyz
      dof rx ry rz
   end
   begin
      id 28
      name RightLeg
      direction 0.000000 -1.000000 0.000000
      length 14.435119
      axis 0.0 0.0 0.0 xyz
      dof rx ry rz
   end
   begin
      id 29
      name RightFoot
      direction 0.000000 -0.258819 0.965926
      length 4.938895
      axis 15.0 0.0 0.0 xyz
      dof rx ry rz
   end
   begin
      id 30
      name RightToeBase
      direction 0.000000 0.000000 1.000000
      length 2.952750
      axis 0.0 0.0 0.0 xyz
      dof rx ry rz
   end
:hierarchy
   begin
      root Spine_dum LeftUpLeg_dum RightUpLeg_dum
      Spine_dum Spine
      LeftUpLeg_dum LeftUpLeg
      RightUpLeg_dum RightUpLeg
      Spine Spine_dum1 Spine_dum2 Spine_dum3
      Spine_dum1 Head
      Spine_dum2 LeftShoulder
      Spine_dum3 RightShoulder
      LeftShoulder LeftArm
      LeftArm LeftForeArm
      LeftForeArm LeftHand
      LeftHand LeftHand_dum1 LeftHand_dum2
      LeftHand_dum1 LeftHandThumb1
      RightShoulder RightArm
      RightArm RightForeArm
      RightForeArm RightHand
      RightHand RightHand_dum1 RightHand_dum2
      RightHand_dum1 RightHandThumb1
      LeftUpLeg LeftLeg
      LeftLeg LeftFoot
      LeftFoot LeftToeBase
      RightUpLeg RightLeg
      RightLeg RightFoot
      RightFoot RightToeBase
   end

# File created by Blade
# Date/Time:  Mon Sep 22 21:09:19 2014
# Frame Rate: 120.000 fps
#------------------------------------------------------
:FULLY-SPECIFIED
:DEGREES
1355
root -2.864222 31.827185 -6.365170 15.163133 47.384545 -10.193164
Spine -30.005387 -6.007727 13.570316
Head 3.165640 9.823670 -3.143655
LeftShoulder -4.900796 42.288933 20.849423
LeftArm 88.548432 26.354788 -34.056938
LeftForeArm -26.450141 0.000000 87.448382
LeftHand -33.237508 -0.000000 4.785722
LeftHandThumb1 -26.253704 0.000000 33.147579
RightShoulder -1.952144 -47.396846 -24.766067
RightArm 69.118379 -17.595315 43.677673
RightForeArm 69.362214 0.000000 74.409427
RightHand 3.380844 0.000000 30.968087
RightHandThumb1 -24.326973 -0.000000 -32.862282
LeftUpLeg -35.214652 2.527509 -1.152342
LeftLeg 29.420542 -0.000000 -0.000000
LeftFoot -18.468628 6.952361 5.073335
LeftToeBase 1.776913 -0.000000 -0.000000
RightUpLeg -161.637087 15.727092 16.603021
RightLeg 90.911234 -0.000000 -0.000000
RightFoot 42.624012 -17.691983 22.965532
RightToeBase 45.073055 -0.000000 -0.000000
1356
root -2.865702 31.825957 -6.329661 14.996144 47.806560 -10.275836
Spine -29.965374 -6.167960 13.524068
Head 3.295749 9.449948 -3.364399
LeftShoulder -4.844416 42.284870 20.779766
LeftArm 88.443943 26.311394 -34.064251
LeftForeArm -26.251646 -0.000000 87.684576
LeftHand -33.501852 -0.000000 5.144704
LeftHandThumb1 -26.253704 0.000000 33.147579
RightShoulder -1.943787 -47.382198 -24.832552
RightArm 69.182025 -17.614244 43.689994
RightForeArm 69.291730 -0.000000 74.345606
RightHand 3.354846 -0.000000 31.081499
RightHandThumb1 -24.326973 -0.000000 -32.862282
LeftUpLeg -35.176250 2.471101 -1.060724
LeftLeg 29.530553 -0.000000 -0.000000
LeftFoot -18.482688 6.692201 5.109019
LeftToeBase 1.679417 -0.000000 -0.000000
RightUpLeg -161.711484 15.627737 16.612451
RightLeg 90.685173 -0.000000 -0.000000
RightFoot 42.609202 -17.568465 23.178457
RightToeBase 45.330894 -0.000000 -0.000000
1357
root -2.866548 31.828981 -6.294290 14.867074 48.231205 -10.443713
Spine -30.016759 -6.279395 13.544930
Head 3.376985 9.091716 -3.582968
LeftShoulder -4.806519 42.316310 20.679986
LeftArm 88.357737 26.278273 -34.105610
LeftForeArm -26.105376 -0.000000 87.877761
LeftHand -33.652659 -0.000000 5.188845
LeftHandThumb1 -26.253704 0.000000 33.147579
RightShoulder -1.948063 -47.333969 -24.926687
RightArm 69.173440 -17.686865 43.767923
RightForeArm 69.172578 -0.000000 74.327727
RightHand 3.490338 -0.000000 31.161326
RightHandThumb1 -24.326973 -0.000000 -32.862282
LeftUpLeg -35.227130 2.418910 -0.920549
LeftLeg 29.611038 -0.000000 -0.000000
LeftFoot -18.481543 6.454997 5.166245
LeftToeBase 1.521508 -0.000000 -0.000000
RightUpLeg -161.845219 15.545174 16.651258
RightLeg 90.438114 -0.000000 -0.000000
RightFoot 42.544834 -17.576262 23.593766
RightToeBase 45.123999 -0.000000 -0.000000
1358
root -2.867190 31.838381 -6.263668 14.804783 48.656593 -10.654946
Spine -30.185492 -6.369031 13.624876
Head 3.514493 8.802464 -3.805171
LeftShoulder -4.743684 42.421642 20.541274
LeftArm 88.305757 26.198089 -34.134394
LeftForeArm -25.935505 0.000000 88.046571
LeftHand -33.965889 -0.000000 5.595791
LeftHandThumb1 -26.253704 0.000000 33.147579
RightShoulder -1.898723 -47.332298 -25.096122
RightArm 69.190101 -17.749845 43.838974
RightForeArm 69.063418 0.000000 74.322576
RightHand 3.561412 -0.000000 31.205948
RightHandThumb1 -24.326973 -0.000000 -32.862282
LeftUpLeg -35.355714 2.311528 -0.744581
LeftLeg 29.627720 -0.000000 -0.000000
LeftFoot -18.437587 6.289371 5.211497
LeftToeBase 1.425170 -0.000000 -0.000000
RightUpLeg -162.037471 15.448571 16.706532
RightLeg 90.168178 -0.000000 -0.000000
RightFoot 42.540597 -17.309329 24.093525
RightToeBase 44.921352 -0.000000 -0.000000
1359
root -2.883427 31.837837 -6.228468 14.713324 49.214254 -10.639235
Spine -30.102906 -6.676984 13.465150
Head 3.481040 8.458157 -3.871753
LeftShoulder -4.656548 42.453736 20.535911
LeftArm 88.275736 26.152504 -34.201970
LeftForeArm -25.726617 -0.000000 88.200478
LeftHand -34.286471 -0.000000 5.934655
LeftHandThumb1 -26.253704 0.000000 33.147579
RightShoulder -1.945529 -47.367348 -25.151745
RightArm 69.233843 -17.767887 43.864998
RightForeArm 68.999079 -0.000000 74.366806
RightHand 3.666137 -0.000000 31.269564
RightHandThumb1 -24.326973 -0.000000 -32.862282
LeftUpLeg -35.323623 2.098400 -0.670027
LeftLeg 29.665080 -0.000000 -0.000000
LeftFoot -18.399198 6.046647 5.196843
LeftToeBase 1.390590 -0.000000 -0.000000
RightUpLeg -162.125424 15.123942 16.587484
RightLeg 89.866745 -0.000000 -0.000000
RightFoot 42.577916 -17.056062 24.579931
RightToeBase 45.143441 -0.000000 -0.000000
1360
root -2.885066 31.849811 -6.197192 14.586108 49.635102 -10.833753
Spine -30.140191 -6.800897 13.507475
Head 3.443701 8.151070 -4.071228
LeftShoulder -4.611193 42.467715 20.408463
LeftArm 88.197371 26.184824 -34.273015
LeftForeArm -25.573562 -0.000000 88.358017
LeftHand -34.619177 -0.000000 6.343883
LeftHandThumb1 -26.253704 0.000000 33.147579
RightShoulder -1.998217 -47.398976 -25.230430
RightArm 69.341853 -17.772142 43.770325
RightForeArm 68.976973 -0.000000 74.313791
RightHand 3.628781 -0.000000 31.429987
RightHandThumb1 -24.326973 -0.000000 -32.862282
LeftUpLeg -35.325489 2.016950 -0.514263
LeftLeg 29.584417 -0.000000 -0.000000
LeftFoot -18.345672 5.875575 5.259722
LeftToeBase 1.326268 -0.000000 -0.000000
RightUpLeg -162.231541 14.996695 16.646816
RightLeg 89.620508 -0.000000 -0.000000
RightFoot 42.528389 -16.765599 25.046314
RightToeBase 45.099929 -0.000000 -0.000000
1361
root -2.900648 31.858335 -6.169960 14.560753 50.097701 -11.000493
Spine -30.221244 -6.948996 13.510454
Head 3.320853 7.844679 -4.207345
LeftShoulder -4.523246 42.453309 20.394511
LeftArm 88.109489 26.256611 -34.404446
LeftForeArm -25.393712 -0.000000 88.536542
LeftHand -34.852898 -0.000000 6.666251
LeftHandThumb1 -26.253704 0.000000 33.147579
RightShoulder -2.010713 -47.406418 -25.351397
RightArm 69.450342 -17.787446 43.662750
RightForeArm 69.209530 -0.000000 74.283316
RightHand 3.727034 -0.000000 31.382913
RightHandThumb1 -24.326973 -0.000000 -32.862282
LeftUpLeg -35.454832 1.895552 -0.359423
LeftLeg 29.537726 -0.000000 -0.000000
LeftFoot -18.316437 5.672547 5.304744
LeftToeBase 1.347387 -0.000000 -0.000000
RightUpLeg -162.409842 14.867889 16.648011
RightLeg 89.303219 -0.000000 -0.000000
RightFoot 42.443756 -16.725779 25.504096
RightToeBase 45.112798 -0.000000 -0.000000
1362
root -2.918057 31.868598 -6.141238 14.461649 50.495901 -11.154412
Spine -30.196473 -7.063890 13.443043
Head 3.217135 7.546134 -4.268165
LeftShoulder -4.385707 42.505151 20.433524
LeftArm 88.024438 26.271824 -34.569227
LeftForeArm -25.039072 -0.000000 88.705832
LeftHand -35.164238 -0.000000 6.922862
LeftHandThumb1 -26.253704 0.000000 33.147579
RightShoulder -1.972354 -47.439194 -25.450072
RightArm 69.514428 -17.738586 43.550501
RightForeArm 69.384361 0.000000 74.285473
RightHand 3.705360 -0.000000 31.358616
RightHandThumb1 -24.326973 -0.000000 -32.862282
LeftUpLeg -35.488717 1.825901 -0.213076
LeftLeg 29.471962 -0.000000 -0.000000
LeftFoot -18.263972 5.458091 5.348454
LeftToeBase 1.311271 -0.000000 -0.000000
RightUpLeg -162.466505 14.784911 16.652379
RightLeg 89.021973 -0.000000 -0.000000
RightFoot 42.230662 -16.700487 26.017688
RightToeBase 44.935645 -0.000000 -0.000000
1363
root -2.933772 31.878514 -6.115235 14.417717 50.887366 -11.280116
Spine -30.181095 -7.136475 13.355952
Head 3.032488 7.207623 -4.362176
LeftShoulder -4.236989 42.531401 20.497637
LeftArm 87.935542 26.328933 -34.749662
LeftForeArm -24.703564 -0.000000 88.891569
LeftHand -35.464320 -0.000000 7.203483
LeftHandThumb1 -26.253704 0.000000 33.147579
RightShoulder -1.971234 -47.359823 -25.547483
RightArm 69.491815 -17.785503 43.422662
RightForeArm 69.585895 -0.000000 74.350758
RightHand 3.776280 -0.000000 31.243888
RightHandThumb1 -24.326973 -0.000000 -32.862282
LeftUpLeg -35.562057 1.736358 -0.088433
LeftLeg 29.422684 -0.000000 -0.000000
LeftFoot -18.178057 5.265288 5.415246
LeftToeBase 1.201385 -0.000000 -0.000000
RightUpLeg -162.557643 14.708656 16.646820
RightLeg 88.767011 -0.000000 -0.000000
RightFoot 41.969144 -16.678867 26.702312
RightToeBase 44.880211 -0.000000 -0.000000
